<?xml version="1.0" encoding="utf-8"?>
<!-- Generator: Adobe Illustrator 22.0.0, SVG Export Plug-In . SVG Version: 6.00 Build 0)  -->
<svg version="1.1" id="Layer_1" xmlns="http://www.w3.org/2000/svg" xmlns:xlink="http://www.w3.org/1999/xlink" x="0px" y="0px"
	 viewBox="0 0 792 612" enable-background="new 0 0 792 612" xml:space="preserve">
<circle fill="#57BD82" cx="347" cy="255.4" r="62.9"/>
<path fill="#FFFFFF" d="M370.4,253.4c-3.5-1.9-5.4-5.7-5.4-12.3c0-2.1,0-5.7,1-7.8c1.1-2.3-0.7-2.6-0.7-2.6s-6.6-2.5-7.6-3.2
	c-1-0.8-1.7-2-1.7-2s-0.1-0.8-0.3-3.5c-0.2-2.7-3.5-2.2-3.5-2.2L347,220l-5.2-0.3c0,0-3.3-0.5-3.5,2.2c-0.2,2.7-0.3,3.5-0.3,3.5
	s-0.7,1.3-1.7,2c-1,0.8-7.6,3.2-7.6,3.2s-1.8,0.3-0.7,2.6c1,2.1,1,5.7,1,7.8c0,6.6-1.9,10.3-5.4,12.3c0,0,2.4,12,2.6,21.8
	c0.2,9.8-0.5,12.9-0.5,12.9H347h21.3c0,0-0.3-5.8-0.5-12.9C367.7,268.1,368,266.8,370.4,253.4z"/>
<path fill="#57BD82" d="M352.6,221.6c-0.5,0.1-3.2,0.4-5.6,0.4s-5.2-0.3-5.6-0.4c-1.5-0.2-1.7,0.5-1,1.2c1.6,1.6,3.7,4.6,6.6,4.8
	c2.9-0.2,5-3.2,6.6-4.8C354.3,222.1,354.2,221.4,352.6,221.6z"/>
<line fill="none" stroke="#57BD82" stroke-width="2" stroke-miterlimit="10" x1="347" y1="291.2" x2="347" y2="223.2"/>
<rect x="354.5" y="241.6" fill="#57BD82" width="5.8" height="2.2"/>
<circle fill="none" stroke="#57BD82" stroke-width="2" stroke-miterlimit="10" cx="347" cy="255.4" r="67.9"/>
</svg>
