<?xml version="1.0" encoding="utf-8"?>
<!-- Generator: Adobe Illustrator 22.0.0, SVG Export Plug-In . SVG Version: 6.00 Build 0)  -->
<svg version="1.1" id="Layer_1" xmlns="http://www.w3.org/2000/svg" xmlns:xlink="http://www.w3.org/1999/xlink" x="0px" y="0px"
	 viewBox="0 0 792 612" enable-background="new 0 0 792 612" xml:space="preserve">
<circle fill="#57BD82" cx="347" cy="255.4" r="62.9"/>
<path fill="#FFFFFF" d="M370.4,253.4c-3.5-1.9-5.4-5.7-5.4-12.3c0-2.1,0-5.7,1-7.8c1.1-2.3-0.7-2.6-0.7-2.6s-6.6-2.5-7.6-3.2
	c-1-0.8-1.7-2-1.7-2s-0.1-0.8-0.3-3.5c-0.2-2.7-3.5-2.2-3.5-2.2L347,220l-5.2-0.3c0,0-3.3-0.5-3.5,2.2c-0.2,2.7-0.3,3.5-0.3,3.5
	s-0.7,1.3-1.7,2c-1,0.8-7.6,3.2-7.6,3.2s-1.8,0.3-0.7,2.6c1,2.1,1,5.7,1,7.8c0,6.6-1.9,10.3-5.4,12.3c0,0,2.4,12,2.6,21.8
	c0.2,9.8-0.5,12.9-0.5,12.9H347h21.3c0,0-0.3-5.8-0.5-12.9C367.7,268.1,368,266.8,370.4,253.4z"/>
<path fill="#57BD82" d="M352.6,221.6c-0.5,0.1-3.2,0.4-5.6,0.4s-5.2-0.3-5.6-0.4c-1.5-0.2-1.7,0.5-1,1.2c1.6,1.6,3.7,4.6,6.6,4.8
	c2.9-0.2,5-3.2,6.6-4.8C354.3,222.1,354.2,221.4,352.6,221.6z"/>
<line fill="none" stroke="#57BD82" stroke-width="2" stroke-miterlimit="10" x1="347" y1="291.2" x2="347" y2="223.2"/>
<rect x="354.5" y="241.6" fill="#57BD82" width="5.8" height="2.2"/>
<path fill="#57BD82" d="M257.7,400.2h-14.2l-22.2-58.8h15.9l13.6,41.7h0.3l13.5-41.7h15.7L257.7,400.2z"/>
<path fill="#57BD82" d="M285.2,400.2v-58.8h39.5v12h-25.8v11.1h24.4v11.4h-24.4v12.2h27.3v12.1H285.2z"/>
<path fill="#57BD82" d="M366.6,356.7c-1.2-1.5-2.8-2.8-4.8-3.7c-2-0.9-3.9-1.4-5.7-1.4c-0.9,0-1.9,0.1-2.9,0.2c-1,0.2-1.8,0.5-2.6,1
	c-0.8,0.5-1.4,1.1-2,1.8c-0.5,0.7-0.8,1.7-0.8,2.9c0,1,0.2,1.8,0.6,2.5c0.4,0.7,1,1.2,1.8,1.7c0.8,0.5,1.8,1,2.9,1.4
	c1.1,0.4,2.4,0.8,3.7,1.3c2,0.7,4.1,1.4,6.2,2.2c2.2,0.8,4.1,1.9,5.9,3.2c1.8,1.3,3.2,3,4.4,4.9c1.2,2,1.7,4.4,1.7,7.3
	c0,3.4-0.6,6.3-1.9,8.8c-1.2,2.5-2.9,4.5-5,6.1c-2.1,1.6-4.5,2.8-7.2,3.6c-2.7,0.8-5.5,1.2-8.4,1.2c-4.2,0-8.3-0.7-12.2-2.2
	c-3.9-1.5-7.2-3.6-9.8-6.3l9.3-9.5c1.4,1.8,3.3,3.3,5.7,4.4c2.4,1.2,4.7,1.8,7,1.8c1.1,0,2.1-0.1,3.1-0.3c1-0.2,1.9-0.6,2.6-1.1
	s1.3-1.2,1.8-2c0.4-0.8,0.7-1.8,0.7-3c0-1.1-0.3-2-0.8-2.8c-0.6-0.8-1.3-1.5-2.4-2.1c-1-0.6-2.3-1.2-3.8-1.7
	c-1.5-0.5-3.3-1.1-5.2-1.7c-1.9-0.6-3.7-1.3-5.5-2.2c-1.8-0.8-3.4-1.9-4.8-3.2c-1.4-1.3-2.5-2.9-3.4-4.7c-0.9-1.9-1.3-4.1-1.3-6.8
	c0-3.3,0.7-6.1,2-8.4c1.3-2.3,3.1-4.2,5.2-5.7s4.6-2.6,7.3-3.3c2.7-0.7,5.4-1,8.2-1c3.3,0,6.7,0.6,10.2,1.8c3.5,1.2,6.5,3,9.1,5.4
	L366.6,356.7z"/>
<path fill="#57BD82" d="M408.7,353.6v46.6h-14.2v-46.6h-16.6v-12.1h47.4v12.1H408.7z"/>
<path fill="#57BD82" d="M463.2,400.2l-12.8-23.3h-4.8v23.3h-13.9v-58.8h22.4c2.8,0,5.6,0.3,8.3,0.9c2.7,0.6,5.1,1.6,7.2,2.9
	c2.1,1.4,3.8,3.2,5.1,5.5c1.3,2.3,1.9,5.1,1.9,8.5c0,4-1.1,7.3-3.2,10c-2.2,2.7-5.1,4.6-9,5.8l15.4,25.1H463.2z M462.6,359.5
	c0-1.4-0.3-2.5-0.9-3.4c-0.6-0.9-1.3-1.5-2.3-2c-0.9-0.5-1.9-0.8-3.1-1c-1.1-0.2-2.2-0.2-3.3-0.2h-7.6v13.7h6.8
	c1.2,0,2.4-0.1,3.6-0.3c1.2-0.2,2.3-0.5,3.3-1c1-0.5,1.8-1.2,2.5-2.2C462.3,362.2,462.6,361,462.6,359.5z"/>
<circle fill="none" stroke="#57BD82" stroke-width="2" stroke-miterlimit="10" cx="347" cy="255.4" r="67.9"/>
</svg>
